<mxfile host="app.diagrams.net" modified="2024-01-30T12:46:14.846Z" agent="Mozilla/5.0 (Windows NT 10.0; Win64; x64) AppleWebKit/537.36 (KHTML, like Gecko) Chrome/120.0.0.0 Safari/537.36" etag="WBap7ludc3nOAK9-nZSE" version="22.1.18" type="github">
  <diagram name="Page-1" id="1W4qaw8KQoFiiG4ynqiO">
    <mxGraphModel dx="1050" dy="522" grid="1" gridSize="10" guides="1" tooltips="1" connect="1" arrows="1" fold="1" page="1" pageScale="1" pageWidth="850" pageHeight="1100" math="0" shadow="0">
      <root>
        <mxCell id="0" />
        <mxCell id="1" parent="0" />
        <mxCell id="rpQe8e9dErhsct59S76Q-1" value="" style="shape=image;verticalLabelPosition=bottom;labelBackgroundColor=default;verticalAlign=top;aspect=fixed;imageAspect=0;image=https://docs.snowflake.com/en/_images/architecture-overview.png;" vertex="1" parent="1">
          <mxGeometry x="40" y="80" width="831.48" height="470.31" as="geometry" />
        </mxCell>
      </root>
    </mxGraphModel>
  </diagram>
</mxfile>
